HIERARCHY
ROOT reference
{
  OFFSET 0 0 0
  CHANNELS 6 Xposition Yposition Zposition Zrotation Xrotation Yrotation
  JOINT Hips
  {
    OFFSET 355.919 86.4685 225.794
    CHANNELS 3 Zrotation Xrotation Yrotation
    JOINT RightUpLeg
    {
      OFFSET -9.27022 -1.53975 0.0125073
      CHANNELS 3 Zrotation Xrotation Yrotation
      JOINT RightLeg
      {
        OFFSET 0.013591 -41.8786 0.0152335
        CHANNELS 3 Zrotation Xrotation Yrotation
        JOINT RightFoot
        {
          OFFSET -0.635566 -43.1371 -0.638083
          CHANNELS 3 Zrotation Xrotation Yrotation
          End Site
          {
            OFFSET 0 -7.69 17.5
          }
        }
      }
    }
    JOINT LeftUpLeg
    {
      OFFSET 9.3307 -1.62449 -0.0651281
      CHANNELS 3 Zrotation Xrotation Yrotation
      JOINT LeftLeg
      {
        OFFSET 0.136006 -41.8606 -0.0682192
        CHANNELS 3 Zrotation Xrotation Yrotation
        JOINT LeftFoot
        {
          OFFSET 0.555276 -40.3296 1.11688
          CHANNELS 3 Zrotation Xrotation Yrotation
          End Site
          {
            OFFSET 0 -7.69 17.5
          }
        }
      }
    }
    JOINT Spine
    {
      OFFSET 0.0523142 14.2998 0.0636653
      CHANNELS 3 Zrotation Xrotation Yrotation
      JOINT Spine1
      {
        OFFSET 0.0411785 9.71676 0.0113233
        CHANNELS 3 Zrotation Xrotation Yrotation
        JOINT Spine2
        {
          OFFSET 0.0674534 10.1151 -0.00111457
          CHANNELS 3 Zrotation Xrotation Yrotation
          JOINT Spine3
          {
            OFFSET 0.048863 9.72171 0.0174249
            CHANNELS 3 Zrotation Xrotation Yrotation
            JOINT Neck
            {
              OFFSET 0.180558 10.3768 0.0617075
              CHANNELS 3 Zrotation Xrotation Yrotation
              JOINT Head
              {
                OFFSET 0.135918 9.47305 0.0380206
                CHANNELS 3 Zrotation Xrotation Yrotation
                End Site
                {
                  OFFSET 0 15.95 0
                }
              }
            }
            JOINT RightShoulder
            {
              OFFSET -3.15694 6.89408 0.00348883
              CHANNELS 3 Zrotation Xrotation Yrotation
              JOINT RightArm
              {
                OFFSET -12.7409 -0.0031918 0.045926
                CHANNELS 3 Zrotation Xrotation Yrotation
                JOINT RightForeArm
                {
                  OFFSET -26.5086 -0.0806184 0.00400063
                  CHANNELS 3 Zrotation Xrotation Yrotation
                  JOINT RightHand
                  {
                    OFFSET -26.0338 -0.025514 0.155859
                    CHANNELS 3 Zrotation Xrotation Yrotation
                    JOINT RightHandThumb1
                    {
                      OFFSET -2.48905 0.190105 3.12053
                      CHANNELS 3 Zrotation Xrotation Yrotation
                      JOINT RightHandThumb2
                      {
                        OFFSET -3.68274 0 0
                        CHANNELS 3 Zrotation Xrotation Yrotation
                        JOINT RightHandThumb3
                        {
                          OFFSET -2.55832 0 0
                          CHANNELS 3 Zrotation Xrotation Yrotation
                          End Site
                          {
                            OFFSET -2.194 0 0
                          }
                        }
                      }
                    }
                    JOINT RightInHandIndex
                    {
                      OFFSET -3.22368 0.508421 1.97842
                      CHANNELS 3 Zrotation Xrotation Yrotation
                      JOINT RightHandIndex1
                      {
                        OFFSET -5.21684 -0.091368 0.999158
                        CHANNELS 3 Zrotation Xrotation Yrotation
                        JOINT RightHandIndex2
                        {
                          OFFSET -3.61937 0 0
                          CHANNELS 3 Zrotation Xrotation Yrotation
                          JOINT RightHandIndex3
                          {
                            OFFSET -2.0521 0 0
                            CHANNELS 3 Zrotation Xrotation Yrotation
                            End Site
                            {
                              OFFSET -1.805 0 0
                            }
                          }
                        }
                      }
                    }
                    JOINT RightInHandMiddle
                    {
                      OFFSET -3.38211 0.517263 0.756737
                      CHANNELS 3 Zrotation Xrotation Yrotation
                      JOINT RightHandMiddle1
                      {
                        OFFSET -5.17411 -0.084 0.313895
                        CHANNELS 3 Zrotation Xrotation Yrotation
                        JOINT RightHandMiddle2
                        {
                          OFFSET -3.94947 0 0
                          CHANNELS 3 Zrotation Xrotation Yrotation
                          JOINT RightHandMiddle3
                          {
                            OFFSET -2.47579 0 0
                            CHANNELS 3 Zrotation Xrotation Yrotation
                            End Site
                            {
                              OFFSET -1.975 0 0
                            }
                          }
                        }
                      }
                    }
                    JOINT RightInHandRing
                    {
                      OFFSET -3.36516 0.537895 -0.128947
                      CHANNELS 3 Zrotation Xrotation Yrotation
                      JOINT RightHandRing1
                      {
                        OFFSET -4.63474 -0.022105 -0.478947
                        CHANNELS 3 Zrotation Xrotation Yrotation
                        JOINT RightHandRing2
                        {
                          OFFSET -3.44238 0 0
                          CHANNELS 3 Zrotation Xrotation Yrotation
                          JOINT RightHandRing3
                          {
                            OFFSET -2.3881 0 0
                            CHANNELS 3 Zrotation Xrotation Yrotation
                            End Site
                            {
                              OFFSET -1.857 0 0
                            }
                          }
                        }
                      }
                    }
                    JOINT RightInHandPinky
                    {
                      OFFSET -3.16105 0.469368 -1.20179
                      CHANNELS 3 Zrotation Xrotation Yrotation
                      JOINT RightHandPinky1
                      {
                        OFFSET -4.14105 -0.022105 -1.09053
                        CHANNELS 3 Zrotation Xrotation Yrotation
                        JOINT RightHandPinky2
                        {
                          OFFSET -2.75653 0 0
                          CHANNELS 3 Zrotation Xrotation Yrotation
                          JOINT RightHandPinky3
                          {
                            OFFSET -1.74189 0 0
                            CHANNELS 3 Zrotation Xrotation Yrotation
                            End Site
                            {
                              OFFSET -1.645 0 0
                            }
                          }
                        }
                      }
                    }
                  }
                }
              }
            }
            JOINT LeftShoulder
            {
              OFFSET 3.22505 6.94333 0.022328
              CHANNELS 3 Zrotation Xrotation Yrotation
              JOINT LeftArm
              {
                OFFSET 12.8536 -0.0213048 -0.00476292
                CHANNELS 3 Zrotation Xrotation Yrotation
                JOINT LeftForeArm
                {
                  OFFSET 26.4992 -0.0497473 -0.102272
                  CHANNELS 3 Zrotation Xrotation Yrotation
                  JOINT LeftHand
                  {
                    OFFSET 25.9818 -0.0182282 -0.0189166
                    CHANNELS 3 Zrotation Xrotation Yrotation
                    JOINT LeftHandThumb1
                    {
                      OFFSET 2.48905 0.190105 3.12053
                      CHANNELS 3 Zrotation Xrotation Yrotation
                      JOINT LeftHandThumb2
                      {
                        OFFSET 3.68274 0 0
                        CHANNELS 3 Zrotation Xrotation Yrotation
                        JOINT LeftHandThumb3
                        {
                          OFFSET 2.55832 0 0
                          CHANNELS 3 Zrotation Xrotation Yrotation
                          End Site
                          {
                            OFFSET 2.194 0 0
                          }
                        }
                      }
                    }
                    JOINT LeftInHandIndex
                    {
                      OFFSET 3.22368 0.508421 1.97842
                      CHANNELS 3 Zrotation Xrotation Yrotation
                      JOINT LeftHandIndex1
                      {
                        OFFSET 5.21684 -0.091368 0.999158
                        CHANNELS 3 Zrotation Xrotation Yrotation
                        JOINT LeftHandIndex2
                        {
                          OFFSET 3.61937 0 0
                          CHANNELS 3 Zrotation Xrotation Yrotation
                          JOINT LeftHandIndex3
                          {
                            OFFSET 2.0521 0 0
                            CHANNELS 3 Zrotation Xrotation Yrotation
                            End Site
                            {
                              OFFSET 1.805 0 0
                            }
                          }
                        }
                      }
                    }
                    JOINT LeftInHandMiddle
                    {
                      OFFSET 3.38211 0.517263 0.756737
                      CHANNELS 3 Zrotation Xrotation Yrotation
                      JOINT LeftHandMiddle1
                      {
                        OFFSET 5.17411 -0.084 0.313895
                        CHANNELS 3 Zrotation Xrotation Yrotation
                        JOINT LeftHandMiddle2
                        {
                          OFFSET 3.94947 0 0
                          CHANNELS 3 Zrotation Xrotation Yrotation
                          JOINT LeftHandMiddle3
                          {
                            OFFSET 2.47579 0 0
                            CHANNELS 3 Zrotation Xrotation Yrotation
                            End Site
                            {
                              OFFSET 1.975 0 0
                            }
                          }
                        }
                      }
                    }
                    JOINT LeftInHandRing
                    {
                      OFFSET 3.36516 0.537895 -0.128947
                      CHANNELS 3 Zrotation Xrotation Yrotation
                      JOINT LeftHandRing1
                      {
                        OFFSET 4.63474 -0.022105 -0.478947
                        CHANNELS 3 Zrotation Xrotation Yrotation
                        JOINT LeftHandRing2
                        {
                          OFFSET 3.44238 0 0
                          CHANNELS 3 Zrotation Xrotation Yrotation
                          JOINT LeftHandRing3
                          {
                            OFFSET 2.3881 0 0
                            CHANNELS 3 Zrotation Xrotation Yrotation
                            End Site
                            {
                              OFFSET 1.857 0 0
                            }
                          }
                        }
                      }
                    }
                    JOINT LeftInHandPinky
                    {
                      OFFSET 3.16105 0.469368 -1.20179
                      CHANNELS 3 Zrotation Xrotation Yrotation
                      JOINT LeftHandPinky1
                      {
                        OFFSET 4.14105 -0.022105 -1.09053
                        CHANNELS 3 Zrotation Xrotation Yrotation
                        JOINT LeftHandPinky2
                        {
                          OFFSET 2.75653 0 0
                          CHANNELS 3 Zrotation Xrotation Yrotation
                          JOINT LeftHandPinky3
                          {
                            OFFSET 1.74189 0 0
                            CHANNELS 3 Zrotation Xrotation Yrotation
                            End Site
                            {
                              OFFSET 1.645 0 0
                            }
                          }
                        }
                      }
                    }
                  }
                }
              }
            }
          }
        }
      }
    }
  }
}
MOTION
Frames: 2
Frame Time: 0.00833333
1.500000000000000000e+02 0.000000000000000000e+00 0.000000000000000000e+00 0.000000000000000000e+00 0.000000000000000000e+00 -0.000000000000000000e+00 3.225339003257293724e-02 1.477696920214770226e-01 7.140555875035718703e-02 5.963325501096342074e-02 -2.388125055897964352e-02 -1.235341940380628584e-01 4.973761615537733785e-03 6.957460533911954959e-03 8.347281053304036330e-03 5.494926823487156914e-02 -1.597636993888817275e-02 -1.023047423806076406e-03 1.209689799458889548e-01 -1.771620072649571220e-02 -1.179532145679089428e-01 -1.918824414181160079e-02 -5.185770274138266911e-03 2.933130562594191831e-02 3.771174226869608570e-02 1.546901823397979318e-02 -9.465021488100534494e-03 -3.025793647695366184e-01 -2.342310118656863172e-01 4.346727208756662013e-03 -6.851157968490149963e-02 1.243881049245565695e-01 -4.043270345806505156e-02 -1.133622604747262924e-01 -5.980604462407454469e-02 -1.296861877793975158e-03 2.545716566810194217e-02 1.910632915002748525e-02 -5.281637460498364968e-04 7.095890192097127624e-02 2.311764267831743214e-01 -3.970745686239072203e-01 4.120361536246348599e-01 -2.187415848472022417e-01 2.236328184917421580e-01 5.874681986311212079e-01 1.892913321911056379e-01 -7.036030866737862377e-01 -1.192442536632028066e-01 -4.288966872361141269e-02 2.895746019181105746e-02 1.639134925759226646e-01 4.054308308073806266e-01 -1.230441231640445887e-01 2.180813034682619611e-01 -4.350847197686542045e-01 -1.127469632877482475e-01 0.000000000000000000e+00 0.000000000000000000e+00 0.000000000000000000e+00 5.087491787084002322e-15 2.543162333498621452e-15 0.000000000000000000e+00 3.479054174585909988e-15 1.084569009335173165e-14 0.000000000000000000e+00 3.283414058398281730e-15 -7.061233234290873183e-15 -4.725259050960020020e-15 0.000000000000000000e+00 0.000000000000000000e+00 0.000000000000000000e+00 0.000000000000000000e+00 -1.237911552087190419e-14 -7.555011149288498208e-15 0.000000000000000000e+00 -5.611709802000511679e-15 1.752279536883447450e-15 3.283414058398281730e-15 -7.061233234290873183e-15 -4.725259050960020020e-15 0.000000000000000000e+00 7.491075279795821003e-15 -6.429946927079887834e-15 0.000000000000000000e+00 -4.324549329371879519e-15 -2.021422404704207511e-15 0.000000000000000000e+00 -6.728378594885234291e-15 -3.564533792240555549e-15 3.283414058398281730e-15 -7.061233234290873183e-15 -4.725259050960020020e-15 0.000000000000000000e+00 0.000000000000000000e+00 0.000000000000000000e+00 0.000000000000000000e+00 -7.095352021966436220e-15 -4.273066817099560808e-15 0.000000000000000000e+00 -1.679147699417239991e-14 -4.665157354723919926e-15 3.283414058398281730e-15 -7.061233234290873183e-15 -4.725259050960020020e-15 0.000000000000000000e+00 0.000000000000000000e+00 0.000000000000000000e+00 0.000000000000000000e+00 7.280712288309435890e-15 -2.106035409625562674e-15 0.000000000000000000e+00 -1.535087402388158315e-14 -3.299288156372049158e-15 4.471801400087409006e-01 2.629945809884322028e-01 -2.041463247248367641e-01 -1.819005863534338754e-02 2.110771983330076221e-02 7.764895283741321541e-02 7.076347436276113519e-03 -1.234231740726179916e-02 3.892052776787777169e-02 -6.613425555209849482e-03 -3.585409235835971403e-02 8.675542270970748940e-03 0.000000000000000000e+00 0.000000000000000000e+00 0.000000000000000000e+00 -5.718644075297709231e-15 -4.117047045153807222e-15 0.000000000000000000e+00 -3.032695444931893484e-15 6.739881408131199480e-15 0.000000000000000000e+00 2.829202752903951017e-15 -4.797651697113467090e-16 4.195744888214753857e-15 0.000000000000000000e+00 0.000000000000000000e+00 0.000000000000000000e+00 0.000000000000000000e+00 7.552341118341182662e-16 1.552949438033091200e-14 0.000000000000000000e+00 -1.631322949713738462e-15 7.014984375674104769e-15 2.829202752903951017e-15 -4.797651697113467090e-16 4.195744888214753857e-15 0.000000000000000000e+00 -3.636400460826512052e-15 2.622481103666413448e-15 0.000000000000000000e+00 2.172252842790793089e-15 7.894865073711913732e-15 0.000000000000000000e+00 -4.630549494497788634e-15 5.733846036236978668e-15 2.829202752903951017e-15 -4.797651697113467090e-16 4.195744888214753857e-15 0.000000000000000000e+00 0.000000000000000000e+00 0.000000000000000000e+00 0.000000000000000000e+00 1.270328732238525690e-14 -9.446527056889853784e-16 0.000000000000000000e+00 2.414062788241411628e-15 7.548992429764726949e-15 2.829202752903951017e-15 -4.797651697113467090e-16 4.195744888214753857e-15 0.000000000000000000e+00 0.000000000000000000e+00 0.000000000000000000e+00 0.000000000000000000e+00 -3.459712290509636042e-15 8.130819923686196997e-15 0.000000000000000000e+00 -1.409781751902102326e-14 2.476595090252820994e-15
1.500000000000000000e+02 0.000000000000000000e+00 0.000000000000000000e+00 0.000000000000000000e+00 0.000000000000000000e+00 -0.000000000000000000e+00 1.946936851761858767e-02 1.029869128424777264e-01 4.498978512470420271e-02 4.135560769334105380e-02 -7.643906191451606096e-03 -7.867831164457161908e-02 5.644288275075670484e-03 -1.392357447083229045e-03 6.486576767212799341e-03 -4.445093807223770427e-02 5.472963974166744627e-03 -1.624353331284431393e-02 7.171480747012756729e-02 -1.154196449130010828e-02 -8.460218960350013306e-02 -3.929617436094373986e-03 4.290800546805645030e-03 1.658952748629107660e-02 1.157785535641695507e-01 5.606894003455274722e-02 -2.811511341445434298e-02 -4.820506025539880030e-02 -5.437211063064793792e-02 2.460227565663129501e-01 -9.031473400584681677e-03 1.256797042734524861e-01 2.735846297570556501e-02 -1.573453388849798198e-02 -1.705118237359590574e-02 9.870812349479812786e-02 4.904212001415996468e-03 2.131246307944257082e-02 -1.691793862117144803e-02 1.013295457405748255e-03 8.488201302214273825e-02 -8.399696017906400636e-01 2.114412590807853570e-02 -1.989620482499310505e-01 3.310798267223490354e-01 2.470504535715525030e-01 -1.726192912200567864e-01 -1.174191109826380197e+00 -1.761628307890173994e-01 6.190389254348324655e-02 -1.922649297106258579e-02 2.741564890631030815e-01 5.226525247641937710e-01 -8.586314444347989405e-02 1.577079738722176605e-01 -2.309231061671455087e-01 -1.481894224516555961e-02 0.000000000000000000e+00 0.000000000000000000e+00 0.000000000000000000e+00 8.853486921310564582e-15 -1.150896995920024546e-14 0.000000000000000000e+00 -2.093475496116877033e-15 1.220532500458906893e-15 0.000000000000000000e+00 -1.928716448155253860e-16 -1.219369501257381828e-14 -7.092524339023683983e-15 0.000000000000000000e+00 0.000000000000000000e+00 0.000000000000000000e+00 0.000000000000000000e+00 1.761026155864437965e-15 -6.978549614318867358e-15 0.000000000000000000e+00 -1.694012623655423121e-14 -7.189763749552339203e-15 -1.928716448155253860e-16 -1.219369501257381828e-14 -7.092524339023683983e-15 0.000000000000000000e+00 -5.362763136434756375e-15 -5.704855255088711589e-15 0.000000000000000000e+00 -2.700011802527680673e-15 -7.373333532171420501e-15 0.000000000000000000e+00 -3.385031530684604874e-15 -8.751390895294232728e-15 -1.928716448155253860e-16 -1.219369501257381828e-14 -7.092524339023683983e-15 0.000000000000000000e+00 0.000000000000000000e+00 0.000000000000000000e+00 0.000000000000000000e+00 -3.353215728770177745e-15 4.545348665446398080e-15 0.000000000000000000e+00 2.153767530988861541e-15 -3.780757108450158165e-15 -1.928716448155253860e-16 -1.219369501257381828e-14 -7.092524339023683983e-15 0.000000000000000000e+00 0.000000000000000000e+00 0.000000000000000000e+00 0.000000000000000000e+00 9.803794037671912082e-15 -5.704303918303856860e-18 0.000000000000000000e+00 -8.870169727797989818e-15 -6.382130144435242848e-15 -8.005759413185666029e-02 -1.112191391738283075e-01 -6.155359952860879336e-01 -5.695088300802988307e-02 5.814849691401374754e-02 1.822219926572315185e-01 2.347887810736383474e-02 -6.158857614544639703e-02 2.028305331075382634e-01 -6.207102665376269812e-02 8.340999591648179390e-02 -8.230985029209363091e-02 0.000000000000000000e+00 0.000000000000000000e+00 0.000000000000000000e+00 1.226135525562389449e-15 -9.749364326431215679e-15 0.000000000000000000e+00 1.504009444074732087e-15 8.463906540335207253e-15 0.000000000000000000e+00 5.412000088016521634e-15 -1.356530097656420229e-15 1.187560605064778302e-15 0.000000000000000000e+00 0.000000000000000000e+00 0.000000000000000000e+00 0.000000000000000000e+00 -5.176420223341945888e-15 -7.623248848956289081e-16 0.000000000000000000e+00 2.036760259654368818e-15 -3.992652694214592937e-15 5.412000088016521634e-15 -1.356530097656420229e-15 1.187560605064778302e-15 0.000000000000000000e+00 5.509720613836388167e-15 -6.588504389856528358e-16 0.000000000000000000e+00 -3.415651333990644930e-15 -7.114684762683974397e-15 0.000000000000000000e+00 2.009323978053185705e-15 -2.198619922944184139e-15 5.412000088016521634e-15 -1.356530097656420229e-15 1.187560605064778302e-15 0.000000000000000000e+00 0.000000000000000000e+00 0.000000000000000000e+00 0.000000000000000000e+00 1.074491412713654589e-14 -1.028350080490297308e-14 0.000000000000000000e+00 4.618224580311881971e-16 -1.156113812771602077e-14 5.412000088016521634e-15 -1.356530097656420229e-15 1.187560605064778302e-15 0.000000000000000000e+00 0.000000000000000000e+00 0.000000000000000000e+00 0.000000000000000000e+00 4.273950311111362136e-15 -1.333691065789106625e-14 0.000000000000000000e+00 -3.443787974133790756e-15 -5.791741556056521640e-15
